HIERARCHY
ROOT Hip
{
	OFFSET 0 1.131 0.0052
	CHANNELS 6 Xposition Yposition Zposition Xrotation Yrotation Zrotation
	JOINT Abdomen
	{
		OFFSET 0 -0.047353 -0.05
		CHANNELS 3 Xrotation Zrotation Yrotation
		JOINT Chest
		{
			OFFSET 0 0.132153 0.007439
			CHANNELS 3 Xrotation Zrotation Yrotation
			JOINT Neck
			{
				OFFSET 0 0.3078 0.006161
				CHANNELS 3 Xrotation Zrotation Yrotation
				JOINT Head_comp
				{
					OFFSET 0 0.0884 0.013
					CHANNELS 3 Xrotation Yrotation Zrotation
					End Site
					{
						OFFSET -0 0.156 0.0624
					}
				}
			}
			JOINT Left_Collar
			{
				OFFSET 0.02282 0.250342 0.017193
				CHANNELS 2 Yrotation Zrotation
				JOINT Left_Shoulder
				{
					OFFSET 0.15421 0 0
					CHANNELS 3 Xrotation Yrotation Zrotation
					JOINT Left_Forearm
					{
						OFFSET 0.265212 0 0
						CHANNELS 2 Yrotation Xrotation
						JOINT Left_Hand
						{
							OFFSET 0.27571 0 0
							CHANNELS 2 Zrotation Yrotation
							JOINT L1ProxPhalanx
							{
								OFFSET 0.014142 0.001733 0.014142
								CHANNELS 3 Yrotation Zrotation Xrotation
								JOINT L1MidPhalanx
								{
									OFFSET 0.04 0 0
									CHANNELS 1 Zrotation
									JOINT L1DistPhalanx
									{
										OFFSET 0.035 0 0
										CHANNELS 1 Zrotation
										End Site
										{
											OFFSET 0.029 -0 -0
										}
									}
								}
							}
							JOINT L2ProxPhalanx
							{
								OFFSET 0.0821037 0.001578 0.0219996
								CHANNELS 2 Yrotation Zrotation
								JOINT L2MidPhalanx
								{
									OFFSET 0.04 0 0
									CHANNELS 1 Zrotation
									JOINT L2DistPhalanx
									{
										OFFSET 0.028 0 0
										CHANNELS 1 Zrotation
										End Site
										{
											OFFSET 0.02 -0 -0
										}
									}
								}
							}
							JOINT L3ProxPhalanx
							{
								OFFSET 0.083 0 0
								CHANNELS 2 Yrotation Zrotation
								JOINT L3MidPhalanx
								{
									OFFSET 0.053 0 0
									CHANNELS 1 Zrotation
									JOINT L3DistPhalanx
									{
										OFFSET 0.03 0 0
										CHANNELS 1 Zrotation
										End Site
										{
											OFFSET 0.023 -0 -0
										}
									}
								}
							}
							JOINT L4ProxPhalanx
							{
								OFFSET 0.077274 -0.000761 -0.0207055
								CHANNELS 2 Yrotation Zrotation
								JOINT L4MidPhalanx
								{
									OFFSET 0.05 0 0
									CHANNELS 1 Zrotation
									JOINT L4DistPhalanx
									{
										OFFSET 0.03 0 0
										CHANNELS 1 Zrotation
										End Site
										{
											OFFSET 0.023 -0 -0
										}
									}
								}
							}
							JOINT L5ProxPhalanx
							{
								OFFSET 0.0675499 -0.001644 -0.039
								CHANNELS 2 Yrotation Zrotation
								JOINT L5MidPhalanx
								{
									OFFSET 0.04 0 0
									CHANNELS 1 Zrotation
									JOINT L5DistPhalanx
									{
										OFFSET 0.021 0 0
										CHANNELS 1 Zrotation
										End Site
										{
											OFFSET 0.022 -0 -0
										}
									}
								}
							}
						}
					}
				}
			}
			JOINT Right_Collar
			{
				OFFSET -0.02282 0.250342 0.017193
				CHANNELS 2 Yrotation Zrotation
				JOINT Right_Shoulder
				{
					OFFSET -0.15421 0 0
					CHANNELS 3 Xrotation Yrotation Zrotation
					JOINT Right_Forearm
					{
						OFFSET -0.265212 0 0
						CHANNELS 2 Yrotation Xrotation
						JOINT Right_Hand
						{
							OFFSET -0.27571 3e-006 0
							CHANNELS 2 Zrotation Yrotation
							JOINT R1ProxPhalanx
							{
								OFFSET -0.014142 0.001733 0.014142
								CHANNELS 3 Yrotation Zrotation Xrotation
								JOINT R1MidPhalanx
								{
									OFFSET -0.04 0 0
									CHANNELS 1 Zrotation
									JOINT R1DistPhalanx
									{
										OFFSET -0.035 0 0
										CHANNELS 1 Zrotation
										End Site
										{
											OFFSET -0.029 -0 -0
										}
									}
								}
							}
							JOINT R2ProxPhalanx
							{
								OFFSET -0.0821037 0.001578 0.0219996
								CHANNELS 2 Yrotation Zrotation
								JOINT R2MidPhalanx
								{
									OFFSET -0.04 0 0
									CHANNELS 1 Zrotation
									JOINT R2DistPhalanx
									{
										OFFSET -0.028 0 0
										CHANNELS 1 Zrotation
										End Site
										{
											OFFSET -0.02 -0 -0
										}
									}
								}
							}
							JOINT R3ProxPhalanx
							{
								OFFSET -0.083 0 0
								CHANNELS 2 Yrotation Zrotation
								JOINT R3MidPhalanx
								{
									OFFSET -0.053 0 0
									CHANNELS 1 Zrotation
									JOINT R3DistPhalanx
									{
										OFFSET -0.03 0 0
										CHANNELS 1 Zrotation
										End Site
										{
											OFFSET -0.023 -0 -0
										}
									}
								}
							}
							JOINT R4ProxPhalanx
							{
								OFFSET -0.077274 -0.000761 -0.0207055
								CHANNELS 2 Yrotation Zrotation
								JOINT R4MidPhalanx
								{
									OFFSET -0.05 0 0
									CHANNELS 1 Zrotation
									JOINT R4DistPhalanx
									{
										OFFSET -0.03 0 0
										CHANNELS 1 Zrotation
										End Site
										{
											OFFSET -0.023 -0 -0
										}
									}
								}
							}
							JOINT R5ProxPhalanx
							{
								OFFSET -0.0675499 -0.001644 -0.039
								CHANNELS 2 Yrotation Zrotation
								JOINT R5MidPhalanx
								{
									OFFSET -0.04 0 0
									CHANNELS 1 Zrotation
									JOINT R5DistPhalanx
									{
										OFFSET -0.021 0 0
										CHANNELS 1 Zrotation
										End Site
										{
											OFFSET -0.022 -0 -0
										}
									}
								}
							}
						}
					}
				}
			}
		}
	}
	JOINT Left_Thigh
	{
		OFFSET 0.1118 -0.1612 -0.0442
		CHANNELS 3 Xrotation Zrotation Yrotation
		JOINT Left_Shin
		{
			OFFSET 0 -0.477856 0
			CHANNELS 1 Xrotation
			JOINT Left_Foot
			{
				OFFSET 0 -0.431952 0
				CHANNELS 2 Xrotation Zrotation
				JOINT Left_Toe
				{
					OFFSET 0 -0.0442 0.119
					CHANNELS 1 Xrotation
					End Site
					{
						OFFSET -0 -0 0.07
					}
				}
			}
		}
	}
	JOINT Right_Thigh
	{
		OFFSET -0.1118 -0.1612 -0.0442
		CHANNELS 3 Xrotation Zrotation Yrotation
		JOINT Right_Shin
		{
			OFFSET 0 -0.477856 0
			CHANNELS 1 Xrotation
			JOINT Right_Foot
			{
				OFFSET 0 -0.431952 0
				CHANNELS 2 Xrotation Zrotation
				JOINT Right_Toe
				{
					OFFSET 0 -0.0442 0.119
					CHANNELS 1 Xrotation
					End Site
					{
						OFFSET -0 -0 0.07
					}
				}
			}
		}
	}
}
MOTION
Frames: 12
Frame Time: 0.009975
-0.100234 -0.0602242 0.0559926 5.75662e-013 9.54432e-008 -5.10884e-006 0 0 0 0 0 0 0 0 0 0 0 0 0 0 -0 0 -0 0 0 0 0 -27.5605 -21.5864 106.421 -7.48048 -7.22872 0.359187 -7.00922 -0.766388 -1.05378 4.72541 -4.46271 -1.39298 -3.41729 8.71841 0.0688695 -13.7112 -8.22532 12.9011 1.57409 -20.5968 -30.2417 0 0 -0 0 -0 0 0 0 0 37.9386 28.008 73.698 26.2405 28.4472 13.118 18.2167 29.0248 19.6359 0 22.4358 32.6146 28.1246 -8.63175 30.7051 32.2053 23.7634 -7.83088 26.7354 35.1526 30.0193 1.05887 -0.72841 -0.0134628 0.0240216 -1.0828 0.728539 0 1.07027 -0.728407 -0.0136078 2.83165e-006 -1.07019 0.728539 0 
-0.100234 -0.0602242 0.0559926 5.75662e-013 9.54432e-008 -5.10884e-006 0 0 0 0 0 0 0 0 0 0 0 0 0 0 -0 0 -0 0 0 0 0 -27.5605 -21.5864 106.421 -7.48048 -7.22872 0.359187 -7.00922 -0.766388 -1.05378 4.72541 -4.46271 -1.39298 -3.41729 8.71841 0.0688695 -13.7112 -8.22532 12.9011 1.57409 -20.5968 -30.2417 0 0 -0 0 -0 0 0 0 0 37.9386 28.008 73.698 26.2405 28.4472 13.118 18.2167 29.0248 19.6359 0 22.4358 32.6146 28.1246 -8.63175 30.7051 32.2053 23.7634 -7.83088 26.7354 35.1526 30.0193 1.05887 -0.72841 -0.0134628 0.0240216 -1.0828 0.728539 0 1.07027 -0.728407 -0.0136078 2.83165e-006 -1.07019 0.728539 0 
-0.101405 -0.0601394 0.0516021 -1.75529e-015 7.07804e-008 -5.08362e-006 0 -0 0 0 -0 0 0 -0 0 -0.710399 0.291085 -9.06823e-006 6.15216 -31.8856 10.8534 -14.3472 -30.7497 -103.098 -1.89543 0.363378 -4.44787 -27.6886 -21.6315 106.298 -7.61808 -7.29258 0.352484 -7.12417 -0.962557 -1.12351 4.70224 -4.60032 -1.58601 -3.49021 8.68326 -0.0918153 -13.8427 -8.2742 12.8672 1.44639 -20.6638 -30.1905 -6.15216 31.8856 10.8534 14.3472 30.7497 103.098 -1.89543 -0.363378 4.44787 27.6886 21.6315 106.298 7.61808 7.29258 -0.352484 7.12417 0.962557 1.12351 -4.70224 4.60032 1.58601 3.49021 -8.68326 0.0918153 13.8427 8.2742 -12.8672 -1.44639 20.6638 30.1905 0.782353 -0.654636 -0.00896171 0.0239015 -0.806204 0.654702 0 0.793702 -0.654634 -0.00909169 1.69901e-006 -0.793652 0.654702 0 
-0.10135 -0.0601356 0.0513308 -1.74826e-015 7.11361e-008 -5.10917e-006 0 -0 0 0 -0 0 0 -0 0 -0.713077 0.291195 -7.96134e-011 6.18227 -32.0457 10.893 -13.9917 -29.3278 -103.955 -1.90222 0.365203 -4.47022 -27.5605 -21.5864 106.421 -7.48048 -7.22872 0.359187 -7.00922 -0.766388 -1.05378 4.72541 -4.46271 -1.39298 -3.41729 8.71841 0.0688695 -13.7112 -8.22532 12.9011 1.57409 -20.5968 -30.2417 -6.18227 32.0457 10.893 13.9917 29.3278 103.955 -1.90222 -0.365203 4.47022 27.5605 21.5864 106.421 7.48048 7.22872 -0.359187 7.00922 0.766388 1.05378 -4.72541 4.46271 1.39298 3.41729 -8.71841 -0.0688695 13.7112 8.22532 -12.9011 -1.57409 20.5968 30.2417 0.765212 -0.658113 -0.00878981 0.0240216 -0.789183 0.658177 0 0.776618 -0.658112 -0.00892082 1.70755e-006 -0.776568 0.658177 0 
-0.10135 -0.0601356 0.0513331 8.09308e-013 6.92428e-008 -5.10919e-006 0 -0 0 0 -0 0 0 -0 0 -0.713066 0.291182 -9.2638e-016 6.18227 -32.0457 10.8926 -13.9887 -29.3193 -103.957 -1.90222 0.365203 -4.47022 -27.5605 -21.5864 106.421 -7.48048 -7.22872 0.359187 -7.00922 -0.766388 -1.05378 4.72541 -4.46271 -1.39298 -3.41729 8.71841 0.0688695 -13.7112 -8.22532 12.9011 1.57409 -20.5968 -30.2417 -6.18227 32.0457 10.8926 13.9887 29.3193 103.957 -1.90222 -0.365203 4.47022 27.5605 21.5864 106.421 7.48048 7.22872 -0.359187 7.00922 0.766388 1.05378 -4.72541 4.46271 1.39298 3.41729 -8.71841 -0.0688695 13.7112 8.22532 -12.9011 -1.57409 20.5968 30.2417 0.765354 -0.658116 -0.00879148 0.0240216 -0.789325 0.65818 0 0.77676 -0.658114 -0.00892248 1.70755e-006 -0.776711 0.65818 0 
-0.10135 -0.0601356 0.0513332 -1.32365e-012 6.92699e-008 -5.10919e-006 0 -0 0 0 -0 0 0 -0 0 -0.713066 0.291182 3.88256e-019 6.18227 -32.0457 10.8926 -13.9887 -29.3193 -103.957 -1.90222 0.365203 -4.47022 -27.5605 -21.5864 106.421 -7.48048 -7.22872 0.359187 -7.00922 -0.766388 -1.05378 4.72541 -4.46271 -1.39298 -3.41729 8.71841 0.0688695 -13.7112 -8.22532 12.9011 1.57409 -20.5968 -30.2417 -6.18227 32.0457 10.8926 13.9887 29.3193 103.957 -1.90222 -0.365203 4.47022 27.5605 21.5864 106.421 7.48048 7.22872 -0.359187 7.00922 0.766388 1.05378 -4.72541 4.46271 1.39298 3.41729 -8.71841 -0.0688695 13.7112 8.22532 -12.9011 -1.57409 20.5968 30.2417 0.765357 -0.658116 -0.00879152 0.0240216 -0.789331 0.65818 0 0.776763 -0.658114 -0.00892252 2.41484e-006 -0.776716 0.65818 0 
-0.10135 -0.0601356 0.0513332 -5.40339e-013 6.92701e-008 -5.10919e-006 0 -0 0 0 -0 0 0 -0 0 -0.713066 0.291182 -0 6.18227 -32.0457 10.8926 -13.9887 -29.3193 -103.957 -1.90222 0.365203 -4.47022 -27.5605 -21.5864 106.421 -7.48048 -7.22872 0.359187 -7.00922 -0.766388 -1.05378 4.72541 -4.46271 -1.39298 -3.41729 8.71841 0.0688695 -13.7112 -8.22532 12.9011 1.57409 -20.5968 -30.2417 -6.18227 32.0457 10.8926 13.9887 29.3193 103.957 -1.90222 -0.365203 4.47022 27.5605 21.5864 106.421 7.48048 7.22872 -0.359187 7.00922 0.766388 1.05378 -4.72541 4.46271 1.39298 3.41729 -8.71841 -0.0688695 13.7112 8.22532 -12.9011 -1.57409 20.5968 30.2417 0.765359 -0.658116 -0.00879154 0.0240216 -0.789331 0.65818 0 0.776765 -0.658114 -0.00892255 2.41484e-006 -0.776716 0.65818 0 
-0.10135 -0.0601356 0.0513332 3.33816e-013 6.92701e-008 -5.10919e-006 0 -0 0 0 -0 0 0 -0 0 -0.713066 0.291182 -0 6.18227 -32.0457 10.8926 -13.9887 -29.3193 -103.957 -1.90222 0.365203 -4.47022 -27.5605 -21.5864 106.421 -7.48048 -7.22872 0.359187 -7.00922 -0.766388 -1.05378 4.72541 -4.46271 -1.39298 -3.41729 8.71841 0.0688695 -13.7112 -8.22532 12.9011 1.57409 -20.5968 -30.2417 -6.18227 32.0457 10.8926 13.9887 29.3193 103.957 -1.90222 -0.365203 4.47022 27.5605 21.5864 106.421 7.48048 7.22872 -0.359187 7.00922 0.766388 1.05378 -4.72541 4.46271 1.39298 3.41729 -8.71841 -0.0688695 13.7112 8.22532 -12.9011 -1.57409 20.5968 30.2417 0.76536 -0.658116 -0.00879155 0.0240216 -0.789331 0.65818 0 0.776765 -0.658114 -0.00892255 2.81198e-006 -0.776716 0.65818 0 
-0.10135 -0.0601356 0.0513332 1.18347e-012 6.92701e-008 -5.10919e-006 0 -0 0 0 -0 0 0 -0 0 -0.713066 0.291182 3.88256e-019 6.18227 -32.0457 10.8926 -13.9887 -29.3193 -103.957 -1.90222 0.365203 -4.47022 -27.5605 -21.5864 106.421 -7.48048 -7.22872 0.359187 -7.00922 -0.766388 -1.05378 4.72541 -4.46271 -1.39298 -3.41729 8.71841 0.0688695 -13.7112 -8.22532 12.9011 1.57409 -20.5968 -30.2417 -6.18227 32.0457 10.8926 13.9887 29.3193 103.957 -1.90222 -0.365203 4.47022 27.5605 21.5864 106.421 7.48048 7.22872 -0.359187 7.00922 0.766388 1.05378 -4.72541 4.46271 1.39298 3.41729 -8.71841 -0.0688695 13.7112 8.22532 -12.9011 -1.57409 20.5968 30.2417 0.76536 -0.658116 -0.00879154 0.0240216 -0.789331 0.65818 0 0.776765 -0.658114 -0.00892255 1.73003e-006 -0.776715 0.65818 0 
-0.10135 -0.0601356 0.0513332 -1.23474e-012 6.92701e-008 -5.10919e-006 0 -0 0 0 -0 0 0 -0 0 -0.713066 0.291182 -0 6.18227 -32.0457 10.8926 -13.9887 -29.3193 -103.957 -1.90222 0.365203 -4.47022 -27.5605 -21.5864 106.421 -7.48048 -7.22872 0.359187 -7.00922 -0.766388 -1.05378 4.72541 -4.46271 -1.39298 -3.41729 8.71841 0.0688695 -13.7112 -8.22532 12.9011 1.57409 -20.5968 -30.2417 -6.18227 32.0457 10.8926 13.9887 29.3193 103.957 -1.90222 -0.365203 4.47022 27.5605 21.5864 106.421 7.48048 7.22872 -0.359187 7.00922 0.766388 1.05378 -4.72541 4.46271 1.39298 3.41729 -8.71841 -0.0688695 13.7112 8.22532 -12.9011 -1.57409 20.5968 30.2417 0.765359 -0.658116 -0.00879154 0.0240216 -0.789331 0.65818 0 0.776765 -0.658114 -0.00892255 1.70755e-006 -0.776715 0.65818 0 
-0.10135 -0.0601356 0.0513332 8.96095e-014 6.92701e-008 -5.10919e-006 0 -0 0 0 -0 0 0 -0 0 -0.713066 0.291182 -0 6.18227 -32.0457 10.8926 -13.9887 -29.3193 -103.957 -1.90222 0.365203 -4.47022 -27.5605 -21.5864 106.421 -7.48048 -7.22872 0.359187 -7.00922 -0.766388 -1.05378 4.72541 -4.46271 -1.39298 -3.41729 8.71841 0.0688695 -13.7112 -8.22532 12.9011 1.57409 -20.5968 -30.2417 -6.18227 32.0457 10.8926 13.9887 29.3193 103.957 -1.90222 -0.365203 4.47022 27.5605 21.5864 106.421 7.48048 7.22872 -0.359187 7.00922 0.766388 1.05378 -4.72541 4.46271 1.39298 3.41729 -8.71841 -0.0688695 13.7112 8.22532 -12.9011 -1.57409 20.5968 30.2417 0.76536 -0.658116 -0.00879155 0.0240216 -0.789331 0.65818 0 0.776765 -0.658114 -0.00892255 1.70755e-006 -0.776716 0.65818 0 
-0.10135 -0.0601356 0.0513332 1.29665e-013 6.92701e-008 -5.10919e-006 0 -0 0 0 -0 0 0 -0 0 -0.713066 0.291182 7.76513e-019 6.18227 -32.0457 10.8926 -13.9887 -29.3193 -103.957 -1.90222 0.365203 -4.47022 -27.5605 -21.5864 106.421 -7.48048 -7.22872 0.359187 -7.00922 -0.766388 -1.05378 4.72541 -4.46271 -1.39298 -3.41729 8.71841 0.0688695 -13.7112 -8.22532 12.9011 1.57409 -20.5968 -30.2417 -6.18227 32.0457 10.8926 13.9887 29.3193 103.957 -1.90222 -0.365203 4.47022 27.5605 21.5864 106.421 7.48048 7.22872 -0.359187 7.00922 0.766388 1.05378 -4.72541 4.46271 1.39298 3.41729 -8.71841 -0.0688695 13.7112 8.22532 -12.9011 -1.57409 20.5968 30.2417 0.76536 -0.658116 -0.00879155 0.0240216 -0.789331 0.65818 0 0.776765 -0.658114 -0.00892255 2.41484e-006 -0.776716 0.65818 0 
